<?xml version="1.0" encoding="UTF-8"?>
<svg xmlns="http://www.w3.org/2000/svg" xmlns:xlink="http://www.w3.org/1999/xlink" version="1.1" viewBox="0 0 800 800">
  <defs>
    <style>
      .cls-1 {
        fill: url(#linear-gradient);
        fill-rule: evenodd;
      }
    </style>
    <linearGradient id="linear-gradient" x1="392.3" y1="-600.7" x2="392.3" y2="-628.7" gradientTransform="translate(-9408 15767) scale(25)" gradientUnits="userSpaceOnUse">
      <stop offset="0" stop-color="#ffb199"/>
      <stop offset="1" stop-color="#ff0844"/>
    </linearGradient>
  </defs>
  <!-- Generator: Adobe Illustrator 28.6.0, SVG Export Plug-In . SVG Version: 1.2.0 Build 709)  -->
  <g>
    <g id="Layer_1">
      <path class="cls-1" d="M462.2,50c-4.8,0-9.6.9-14.1,2.5,40.3,26.5-7,64.9,15,97.5-3.1-22.3,7.5-44.4,26.9-55.9,7.1-5.9,11.7-8.1,10.2-17.8-2.4-16.1-23.8-26.3-37.9-26.3ZM519.7,60.4c-5.6,28.1-12.5,29.1-33.1,47.2-16.5,13-22,35.7-13.2,54.8-85-33-193.9-53-273.8,4.1-28.7,20.5-46.3,50-81.7,62-22.9,7.8-45.4,5.5-59.7,28.2-10.8,13.5-10.2,32.9,1.4,45.8,4.3,4.4,12.5,7.2,15.9,11.6,2,2.5,1.9,5,3.8,8.3,3.3,7.8,8.1,14.8,14.1,20.7,3.6,3,16.3,6,18.4,9.2,2.7,4-4.3,20,1.5,22.5,4,1.8,15.6-18.6,16.7-20.4-2.3,16.1-5.3,44.6,12.7,20.8,8.6-11.3,9.1-15,23.5-17.5,113.8-19.5,221.8,56.9,241.3,170.7,1,5.6,1.7,11.3,2.2,16.9-2.7-12.5-19-32.5-34.2-27.8-6.5,2-8.9,13.2-13.1,19.6-5.4,8.2-12,15.5-19.6,21.7,1.3-12.1.7-24.4-1.8-36.3-4.6,18.7-13.7,49.7-36.6,44.7-15.6-2.4-28.5-13.5-33.2-28.6-3-19,17.1-41.3-15.2-42.9-64.8-3.2-49.8,92-11.5,116.9-8.8,1-17.4,3.4-25.4,7.1,82.3,47.8,187.8,19.9,235.6-62.4,10.8-18.6,18-39.1,21.3-60.4,8.9,40.6,3.2,83-16.1,119.8-8.1,15.4-18.5,29.4-30.7,41.7-7.5,7.5-22.3,15.7-27.2,23.5,30.3-4,60-12.2,88.1-24.2-29.1,39.7-67.8,71.3-112.5,92,97.4-6.9,184.9-62.4,232.5-147.7-7.5,42-24.1,81.8-48.6,116.7,66.8-44.7,111.8-115.2,124.4-194.6,6.1,28.7,7.9,58.2,5.2,87.5,55-76.3,72.4-173.5,47.3-264.1-9.5-34.8-23.7-68.1-42.2-99-7.2-12.1-15-23.7-23.5-34.9-3.3-4.3-21.1-20.1-21.1-25-.2.5-.3.5-.4,0,0,81.6-87.5,132.8-160.8,111.6,58.4-4.6,105.8-49.2,114-107.2,6.9-58.7-28.4-114.2-84.5-132.9h0Z"/>
    </g>
  </g>
</svg>